<?xml version="1.0" standalone="no"?>
<!DOCTYPE svg PUBLIC "-//W3C//DTD SVG 20010904//EN"
 "http://www.w3.org/TR/2001/REC-SVG-20010904/DTD/svg10.dtd">
<svg version="1.0" xmlns="http://www.w3.org/2000/svg"
 width="500.000000pt" height="500.000000pt" viewBox="0 0 500.000000 500.000000"
 preserveAspectRatio="xMidYMid meet">

<g transform="translate(0.000000,500.000000) scale(0.100000,-0.100000)"
fill="#000000" stroke="none">
<path d="M4456 3035 c-27 -20 -27 -82 -1 -101 27 -20 79 -17 98 4 25 27 22 78
-5 96 -28 20 -67 20 -92 1z"/>
<path d="M3340 2715 l0 -325 55 0 55 0 0 133 c0 72 5 149 10 169 14 48 52 78
99 78 73 0 81 -21 81 -219 l0 -161 61 0 61 0 -4 183 c-4 149 -8 188 -22 218
-26 51 -68 74 -139 73 -49 -1 -63 -5 -97 -32 -21 -18 -41 -32 -44 -32 -3 0 -6
54 -6 120 l0 120 -55 0 -55 0 0 -325z"/>
<path d="M3890 2715 l0 -325 55 0 c54 0 55 0 55 30 0 17 5 30 10 30 6 0 10 -4
10 -9 0 -23 71 -52 124 -52 88 0 147 45 176 135 19 61 9 202 -18 251 -55 98
-186 121 -272 49 l-30 -26 0 121 0 121 -55 0 -55 0 0 -325z m290 25 c47 -51
51 -169 7 -224 -29 -36 -95 -46 -133 -22 -70 47 -72 211 -3 260 39 27 96 21
129 -14z"/>
<path d="M1244 3011 c-129 -33 -204 -148 -204 -311 0 -199 105 -311 290 -311
103 0 167 30 210 98 17 26 30 53 30 60 0 12 -68 53 -89 53 -5 0 -11 -10 -15
-23 -3 -12 -19 -36 -36 -52 -25 -24 -40 -30 -93 -33 -52 -3 -67 0 -96 20 -19
13 -43 37 -53 55 -25 42 -34 155 -19 220 32 131 179 175 272 82 l39 -39 40 22
c22 13 40 29 40 36 0 26 -46 75 -94 99 -53 27 -165 39 -222 24z"/>
<path d="M2923 3011 c-87 -22 -147 -73 -184 -156 -19 -40 -23 -69 -23 -145 -1
-157 43 -244 148 -295 96 -47 249 -33 314 28 24 22 62 87 62 106 0 5 -20 20
-44 34 l-43 24 -17 -38 c-9 -21 -32 -47 -50 -58 -45 -28 -129 -28 -173 -1 -65
39 -96 153 -73 265 29 142 178 193 272 94 20 -21 40 -39 43 -39 3 0 23 12 45
26 38 25 39 27 26 53 -20 37 -55 67 -100 86 -45 19 -157 28 -203 16z"/>
<path d="M4790 2963 c-70 -11 -70 -11 -70 -58 l0 -45 -40 0 -40 0 0 -45 0 -45
40 0 40 0 0 -140 c0 -153 7 -181 56 -219 21 -16 41 -21 90 -21 80 0 117 15
108 44 -19 60 -24 68 -42 61 -40 -17 -61 -16 -81 4 -19 19 -21 32 -21 146 l0
125 65 0 65 0 0 45 0 45 -65 0 -65 0 0 55 c0 30 -3 54 -7 54 -5 -1 -19 -3 -33
-6z"/>
<path d="M407 2917 c-76 -18 -105 -41 -145 -118 -32 -61 -36 -65 -85 -77 -29
-8 -67 -25 -86 -39 -40 -31 -77 -108 -86 -180 -6 -45 -4 -53 14 -62 32 -17 71
-14 71 7 0 31 40 83 75 98 30 12 39 12 73 -1 39 -16 72 -58 72 -93 0 -11 7
-23 16 -26 9 -3 92 -6 185 -6 l169 0 10 28 c30 80 70 110 134 98 40 -8 82 -54
88 -96 3 -22 8 -25 49 -28 63 -4 82 15 74 74 -3 24 -7 63 -10 87 -11 85 -73
147 -149 147 -33 0 -45 7 -78 40 -21 23 -38 47 -38 54 0 22 -66 74 -107 86
-62 17 -183 21 -246 7z"/>
<path d="M1776 2859 c-47 -11 -113 -47 -120 -66 -3 -7 4 -29 15 -48 l21 -35
34 26 c63 48 158 52 175 7 14 -37 -14 -60 -90 -74 -39 -6 -87 -22 -108 -33
-80 -45 -94 -147 -28 -213 31 -31 38 -33 100 -33 63 0 69 2 102 35 39 39 43
41 43 21 0 -26 50 -56 94 -56 57 0 67 9 59 53 -4 27 -11 37 -24 37 -31 0 -39
34 -39 164 0 139 -8 167 -54 195 -38 23 -127 33 -180 20z m134 -274 c0 -70
-39 -115 -99 -115 -37 0 -61 23 -61 59 0 41 19 58 80 75 79 21 80 20 80 -19z"/>
<path d="M2160 2625 l0 -235 55 0 55 0 0 128 c0 70 5 144 10 164 15 54 54 81
107 75 l42 -4 10 45 c5 26 7 50 5 54 -3 4 -27 8 -54 8 -43 0 -54 -4 -85 -35
l-35 -36 0 36 0 35 -55 0 -55 0 0 -235z"/>
<path d="M4450 2625 l0 -235 55 0 55 0 0 235 0 235 -55 0 -55 0 0 -235z"/>
<path d="M757 2492 c-35 -39 -10 -92 42 -92 29 0 61 27 61 51 0 51 -70 78
-103 41z"/>
<path d="M160 2480 c-24 -24 -25 -38 -4 -68 10 -14 25 -22 45 -22 37 0 59 20
59 54 0 52 -61 75 -100 36z"/>
</g>
</svg>
